<svg version="1.1" id="Layer_1" xmlns="http://www.w3.org/2000/svg" xmlns:xlink="http://www.w3.org/1999/xlink" x="0px" y="0px"
	 width="100%" viewBox="0 0 800 800" enable-background="new 0 0 800 800" xml:space="preserve">
<path fill="#000000" opacity="1.000000" stroke="none" 
	d="
M502.614014,436.559082 
	C518.746460,426.796051 534.478149,417.070618 550.423767,407.709595 
	C556.752075,403.994537 559.245972,399.068176 559.206238,391.751678 
	C558.981995,350.424377 559.080811,309.095337 559.076843,267.766876 
	C559.076721,266.101593 559.051270,264.427094 559.205811,262.772614 
	C559.782410,256.598419 561.860474,254.702301 568.199585,254.688324 
	C583.697693,254.654129 599.196045,254.653351 614.694153,254.686249 
	C621.961426,254.701675 624.205505,257.080109 624.214050,264.881439 
	C624.243835,292.044891 624.221191,319.208435 624.219604,346.371918 
	C624.218445,365.536346 624.268921,384.700928 624.206055,403.865173 
	C624.132874,426.169830 614.628113,443.296448 595.586731,454.945892 
	C533.347107,493.023834 471.046844,531.002869 408.844788,569.142090 
	C403.044189,572.698730 397.927551,572.844727 392.117188,569.282837 
	C329.909393,531.148193 267.642548,493.109924 205.378326,455.067383 
	C185.936615,443.188751 176.573166,425.903412 176.645706,403.126648 
	C176.792191,357.132507 176.683197,311.137543 176.687302,265.142914 
	C176.688080,256.415924 178.436523,254.685608 187.233963,254.680557 
	C202.398865,254.671890 217.563828,254.651169 232.728607,254.694656 
	C239.363098,254.713684 241.328354,256.703735 241.334213,263.380646 
	C241.371033,305.375702 241.531143,347.371674 241.274353,389.365082 
	C241.219772,398.291260 244.087540,404.055908 252.044998,408.811096 
	C299.379333,437.096893 346.460541,465.807983 393.495453,494.590820 
	C398.417877,497.603119 402.163483,497.784821 407.122314,494.730377 
	C438.753082,475.247284 470.554108,456.040497 502.614014,436.559082 
z"/>
</svg>